# xmcd
#
# Track frame offsets: 
#        150
#        38996
#        54086
#        73074
#        99858
#        121151
#        141242
#        168892
#
# Disc length: 3425 seconds
#
# Revision: 0
# Processed by: cddbd v1.5.2PL0 Copyright (c) Steve Scherf et al.
# Submitted via: ExactAudioCopy v0.99pb4
#
DISCID=620d5f08
DTITLE=Svet Boogie Band - Live
DYEAR=2009
DGENRE=Blues
TTITLE0=All God's Places Blues
TTITLE1=Groovy Sister
TTITLE2=All The Time
TTITLE3=Goin' 2 London
TTITLE4=Ms.T.Blues
TTITLE5=Bon Nuit
TTITLE6=B.E.P.
TTITLE7=Bonus: Blues Jam and Interview
EXTD=
EXTT0=
EXTT1=
EXTT2=
EXTT3=
EXTT4=
EXTT5=
EXTT6=
EXTT7=
PLAYORDER=
